<?xml version="1.0" standalone="no"?><!DOCTYPE svg PUBLIC "-//W3C//DTD SVG 1.1//EN" "http://www.w3.org/Graphics/SVG/1.1/DTD/svg11.dtd"><svg t="1762311454280" class="icon" viewBox="0 0 1024 1024" version="1.1" xmlns="http://www.w3.org/2000/svg" p-id="894" xmlns:xlink="http://www.w3.org/1999/xlink" width="200" height="200"><path d="M432.049231 852.086154C204.603077 852.086154 19.692308 667.175385 19.692308 439.729231S204.603077 27.372308 432.049231 27.372308s412.356923 184.910769 412.356923 412.356923-184.910769 412.356923-412.356923 412.356923z m0-785.329231C226.461538 66.756923 59.076923 234.141538 59.076923 439.729231c0 205.587692 167.384615 372.972308 372.972308 372.972307s372.972308-167.384615 372.972307-372.972307c0-205.587692-167.384615-372.972308-372.972307-372.972308z" p-id="895"></path><path d="M984.615385 1011.987692c-5.12 0-10.043077-1.969231-13.981539-5.710769L695.729231 731.372308a19.613538 19.613538 0 1 1 27.766154-27.766154L998.4 978.510769a19.613538 19.613538 0 0 1-13.784615 33.476923z" p-id="896"></path></svg>